<svg width="13" height="13" viewBox="0 0 13 13" fill="none" xmlns="http://www.w3.org/2000/svg">
<g id="instagram 1" clip-path="url(#clip0_1_308)">
<path id="Vector" d="M9.48173 0H3.51971C1.57931 0 0.000732422 1.57858 0.000732422 3.51898V9.4811C0.000732422 11.4214 1.57931 13 3.51971 13H9.48183C11.4221 13 13.0007 11.4214 13.0007 9.4811V3.51898C13.0007 1.57858 11.4221 0 9.48173 0V0ZM12.2386 9.4811C12.2386 11.0012 11.0019 12.2379 9.48173 12.2379H3.51971C1.99955 12.2379 0.762847 11.0012 0.762847 9.4811V3.51898C0.762847 1.99881 1.99955 0.762114 3.51971 0.762114H9.48183C11.0019 0.762114 12.2386 1.99881 12.2386 3.51898V9.4811Z" fill="black"/>
<path id="Vector_2" d="M6.50063 2.94531C4.54059 2.94531 2.94604 4.53986 2.94604 6.49989C2.94604 8.45993 4.54059 10.0545 6.50063 10.0545C8.46066 10.0545 10.0552 8.45993 10.0552 6.49989C10.0552 4.53986 8.46066 2.94531 6.50063 2.94531ZM6.50063 9.29236C4.96093 9.29236 3.70816 8.03969 3.70816 6.49989C3.70816 4.96019 4.96093 3.70743 6.50063 3.70743C8.04043 3.70743 9.29309 4.96019 9.29309 6.49989C9.29309 8.03969 8.04043 9.29236 6.50063 9.29236Z" fill="black"/>
<path id="Vector_3" d="M10.1402 1.68311C9.56096 1.68311 9.08984 2.15432 9.08984 2.73344C9.08984 3.31266 9.56096 3.78388 10.1402 3.78388C10.7194 3.78388 11.1906 3.31266 11.1906 2.73344C11.1906 2.15422 10.7194 1.68311 10.1402 1.68311ZM10.1402 3.02166C9.98129 3.02166 9.85196 2.89233 9.85196 2.73344C9.85196 2.57445 9.98129 2.44522 10.1402 2.44522C10.2992 2.44522 10.4285 2.57445 10.4285 2.73344C10.4285 2.89233 10.2992 3.02166 10.1402 3.02166Z" fill="black"/>
</g>
<defs>
<clipPath id="clip0_1_308">
<rect width="13" height="13" fill="white" transform="translate(0.000732422)"/>
</clipPath>
</defs>
</svg>
