<svg width="11" height="11" viewBox="0 0 11 11" fill="none" xmlns="http://www.w3.org/2000/svg">
<g id="linkedin 1" clip-path="url(#clip0_1_322)">
<path id="Vector" d="M10.9981 11V10.9996H11.0008V6.96531C11.0008 4.99173 10.5759 3.47144 8.26869 3.47144C7.15952 3.47144 6.41519 4.0801 6.11131 4.65714H6.07923V3.65569H3.8916V10.9996H6.16952V7.36314C6.16952 6.40569 6.35102 5.47985 7.53673 5.47985C8.70502 5.47985 8.72244 6.57252 8.72244 7.42456V11H10.9981Z" fill="black"/>
<path id="Vector_2" d="M0.182129 3.65601H2.4628V10.9999H0.182129V3.65601Z" fill="black"/>
<path id="Vector_3" d="M1.32165 0C0.592441 0 0.000732422 0.591708 0.000732422 1.32092C0.000732422 2.05013 0.592441 2.65421 1.32165 2.65421C2.05086 2.65421 2.64257 2.05013 2.64257 1.32092C2.64211 0.591708 2.0504 0 1.32165 0V0Z" fill="black"/>
</g>
<defs>
<clipPath id="clip0_1_322">
<rect width="11" height="11" fill="white" transform="translate(0.000732422)"/>
</clipPath>
</defs>
</svg>
