<svg width="13" height="13" viewBox="0 0 13 13" fill="none" xmlns="http://www.w3.org/2000/svg">
<g id="twitter 1" clip-path="url(#clip0_1_315)">
<g id="Group">
<g id="Group_2">
<path id="Vector" d="M13.0007 2.46919C12.5173 2.68125 12.0022 2.82181 11.4651 2.89006C12.0176 2.56019 12.4393 2.04181 12.6375 1.417C12.1224 1.72412 11.5537 1.94106 10.9475 2.06213C10.4584 1.54131 9.76129 1.21875 9.00079 1.21875C7.52529 1.21875 6.33742 2.41638 6.33742 3.88456C6.33742 4.09581 6.35529 4.29894 6.39917 4.49231C4.18348 4.38425 2.22292 3.32231 0.905857 1.70463C0.67592 2.10356 0.541045 2.56019 0.541045 3.05175C0.541045 3.97475 1.01636 4.79294 1.72486 5.26662C1.29667 5.2585 0.876607 5.13419 0.520732 4.93837C0.520732 4.9465 0.520732 4.95706 0.520732 4.96762C0.520732 6.26275 1.44454 7.3385 2.65598 7.58631C2.43904 7.64563 2.20261 7.67406 1.95723 7.67406C1.78661 7.67406 1.61436 7.66431 1.45267 7.62856C1.79798 8.684 2.77786 9.45994 3.94298 9.48512C3.03623 10.1944 1.88492 10.6218 0.638545 10.6218C0.419982 10.6218 0.210357 10.6121 0.000732422 10.5852C1.18129 11.3466 2.58042 11.7812 4.08923 11.7812C8.99348 11.7812 11.6747 7.71875 11.6747 4.19737C11.6747 4.07956 11.6707 3.96581 11.665 3.85287C12.1939 3.4775 12.6384 3.00869 13.0007 2.46919Z" fill="black"/>
</g>
</g>
</g>
<defs>
<clipPath id="clip0_1_315">
<rect width="13" height="13" fill="white" transform="translate(0.000732422)"/>
</clipPath>
</defs>
</svg>
